<svg width="16.000000" height="16.000000" viewBox="0 0 16 16" fill="none" xmlns="http://www.w3.org/2000/svg" xmlns:xlink="http://www.w3.org/1999/xlink">
	<desc>
			Created with Pixso.
	</desc>
	<defs/>
	<path id="Vector" d="M4.44 0C1.99 0 0 1.99 0 4.44L0 11.55C0 14 1.99 16 4.44 16L11.55 16C14 16 16 14 16 11.55L16 4.44C16 1.99 14 0 11.55 0L4.44 0ZM4.44 1.77L11.55 1.77C13.02 1.77 14.22 2.97 14.22 4.44L14.22 11.55C14.22 13.02 13.02 14.22 11.55 14.22L4.44 14.22C2.97 14.22 1.77 13.02 1.77 11.55L1.77 4.44C1.77 2.97 2.97 1.77 4.44 1.77ZM12.44 2.66C12.2 2.66 11.98 2.76 11.81 2.92C11.64 3.09 11.55 3.31 11.55 3.55C11.55 3.79 11.64 4.01 11.81 4.18C11.98 4.35 12.2 4.44 12.44 4.44C12.68 4.44 12.9 4.35 13.07 4.18C13.23 4.01 13.33 3.79 13.33 3.55C13.33 3.31 13.23 3.09 13.07 2.92C12.9 2.76 12.68 2.66 12.44 2.66ZM8 3.55C5.54 3.55 3.55 5.54 3.55 8C3.55 10.45 5.54 12.44 8 12.44C10.45 12.44 12.44 10.45 12.44 8C12.44 5.54 10.45 3.55 8 3.55ZM8 5.33C9.47 5.33 10.66 6.52 10.66 8C10.66 9.47 9.47 10.66 8 10.66C6.52 10.66 5.33 9.47 5.33 8C5.33 6.52 6.52 5.33 8 5.33Z" fill="#5C8EE6" fill-opacity="1.000000" fill-rule="nonzero"/>
</svg>
