<svg width="19.549255" height="12.000000" viewBox="0 0 19.5493 12" fill="none" xmlns="http://www.w3.org/2000/svg" xmlns:xlink="http://www.w3.org/1999/xlink">
	<desc>
			Created with Pixso.
	</desc>
	<defs/>
	<path id="Vector" d="M19.44 10.75C18.64 9.31 16.58 7.59 15.73 6.84C15.5 6.63 15.48 6.28 15.69 6.05C17.31 4.31 18.61 2.31 19.05 1.1C19.25 0.56 18.84 0 18.27 0L16.6 0C16.05 0 15.73 0.2 15.57 0.51C14.23 3.27 13.07 4.46 12.26 5.16C11.81 5.55 11.11 5.23 11.11 4.63C11.11 3.49 11.11 2.01 11.11 0.96C11.11 0.45 10.69 0.03 10.17 0.03L7.13 0C6.75 0 6.53 0.43 6.76 0.74L7.26 1.46C7.45 1.71 7.55 2.01 7.55 2.33L7.55 5.58C7.55 6.14 6.86 6.42 6.46 6.02C5.08 4.68 3.88 1.94 3.45 0.63C3.33 0.26 2.97 0 2.57 0L0.93 0C0.31 0 -0.14 0.58 0.03 1.17C1.53 6.44 4.61 11.45 10.1 11.99C10.64 12.04 11.11 11.61 11.11 11.07L11.11 9.36C11.11 8.87 11.49 8.45 11.98 8.44C12 8.44 12.02 8.44 12.04 8.44C13.49 8.44 15.11 10.55 15.68 11.54C15.85 11.82 16.15 12 16.48 12L18.69 12C19.34 12 19.75 11.31 19.44 10.75Z" fill="#5C8EE6" fill-opacity="1.000000" fill-rule="nonzero"/>
</svg>
